<svg xmlns="http://www.w3.org/2000/svg" viewBox="0 0 295 527" class="svg-icon"><defs/><defs><style>.cls-1{fill:#007cc3}</style></defs><g id="Capa_2"><g id="Capa_2-2"><path d="M152 444c-46-63-44-155 4-204a50 50 0 014-4l1-1 2-2a155 155 0 01102-38h8l-17-43c-12 2-19-1-27-7 9 5 27 1 30-11-8 7-39 4-50-12 8 6 35 11 47-7-21 6-49 0-59-22 7 10 33 19 50 12-18-3-24-19-40-40C177 26 142 5 98 0 84-1 43 2 24 35l-1 1v1c-4 9-2 14 4 15 8 1 15 2 20 8-9-4-31-9-33 14-2 16-2 37 10 72 4-5 17-17 28-16-5 1-11 6-13 12v53a96 96 0 00-13 16 124 124 0 00-18 39l-3 11a203 203 0 0033 163 203 203 0 01-14-61v-1l1 3a204 204 0 0060 103 203 203 0 01-20-39c46 57 102 92 110 98-25-31-49-76-59-125a150 150 0 0036 42zM78 71s-8-2-13-6a246 246 0 0057-2 115 115 0 01-35 20c-5-3-8-9-9-12z" class="cls-1"/><path d="M184 333c-21 70 14 121 28 137a158 158 0 01-46-81c-13-56 6-111 43-141-7 9-12 21-15 36 19-40 48-56 88-59 0 0 7 20 13 44-66 1-105 53-104 118-6-16-7-35-7-54z" class="cls-1"/></g></g></svg>